<svg width="294" height="58" viewBox="0 0 294 58" fill="none" xmlns="http://www.w3.org/2000/svg">
<path d="M20.736 31.032L20.8 27.576C19.968 28.408 18.496 28.856 15.424 29.432C10.688 30.328 9.152 31.672 9.152 34.36C9.152 36.728 10.56 37.88 13.184 37.88C17.472 37.88 20.672 34.744 20.736 31.032ZM29.12 43H21.376C21.12 42.232 20.928 41.144 20.864 40.184C18.88 42.36 15.552 43.832 11.328 43.832C4.16 43.832 0.832 40.312 0.832 35.192C0.832 26.104 6.912 25.08 15.296 23.928C19.456 23.352 20.608 22.52 20.608 20.344C20.608 18.296 18.56 17.08 15.296 17.08C11.52 17.08 9.984 18.936 9.6 21.752H1.856C1.984 15.224 5.568 10.68 15.68 10.68C25.664 10.68 29.12 15.16 29.12 23.096V43ZM47.637 36.728C52.501 36.728 54.805 33.464 54.805 27C54.805 21.368 51.861 17.464 47.701 17.464C43.733 17.464 40.661 21.176 40.661 26.488C40.661 33.336 43.029 36.728 47.637 36.728ZM40.981 57.912H32.789V11.512H40.789L40.853 15.352C42.837 12.152 45.781 10.68 49.621 10.68C57.557 10.68 63.253 16.952 63.253 27.576C63.253 37.112 58.453 43.832 50.325 43.832C46.421 43.832 43.349 42.232 40.981 38.904V57.912ZM81.137 36.728C86.001 36.728 88.305 33.464 88.305 27C88.305 21.368 85.361 17.464 81.201 17.464C77.233 17.464 74.161 21.176 74.161 26.488C74.161 33.336 76.529 36.728 81.137 36.728ZM74.481 57.912H66.289V11.512H74.289L74.353 15.352C76.337 12.152 79.281 10.68 83.121 10.68C91.057 10.68 96.753 16.952 96.753 27.576C96.753 37.112 91.953 43.832 83.825 43.832C79.921 43.832 76.849 42.232 74.481 38.904V57.912ZM134.029 43H125.069V23.928H108.493V43H99.597V0.503998H108.493V16.504H125.069V0.503998H134.029V43ZM145.224 24.184H158.088C157.96 19.512 154.888 17.272 151.624 17.272C148.296 17.272 145.544 19.832 145.224 24.184ZM166.664 29.432H144.968C145.224 34.168 147.912 37.24 152.008 37.24C154.696 37.24 157.064 35.896 157.64 33.72H166.216C164.296 40.184 159.112 43.832 152.392 43.832C141.896 43.832 136.648 38.072 136.648 26.68C136.648 16.952 142.216 10.68 151.88 10.68C161.544 10.68 166.664 16.952 166.664 29.432ZM177.859 43H169.539V11.512H177.347V15.288C180.099 11.064 183.299 10.68 186.691 10.68H187.779V19.192C187.011 19.064 186.243 19 185.475 19C180.355 19 177.859 21.56 177.859 26.616V43ZM203.652 36.856C208.708 36.856 211.268 33.656 211.268 27.256C211.268 20.856 208.708 17.72 203.652 17.72C198.596 17.72 196.036 20.856 196.036 27.256C196.036 33.656 198.596 36.856 203.652 36.856ZM203.652 43.832C193.476 43.832 187.46 37.048 187.46 27.256C187.46 17.272 193.668 10.68 203.652 10.68C213.508 10.68 219.652 17.208 219.652 27.256C219.652 37.24 213.444 43.832 203.652 43.832ZM230.536 24.184H243.4C243.272 19.512 240.2 17.272 236.936 17.272C233.608 17.272 230.856 19.832 230.536 24.184ZM251.976 29.432H230.28C230.536 34.168 233.224 37.24 237.32 37.24C240.008 37.24 242.376 35.896 242.952 33.72H251.528C249.608 40.184 244.424 43.832 237.704 43.832C227.208 43.832 221.96 38.072 221.96 26.68C221.96 16.952 227.528 10.68 237.192 10.68C246.856 10.68 251.976 16.952 251.976 29.432ZM281.796 21.048H273.796C273.348 17.976 271.684 16.888 267.908 16.888C264.772 16.888 262.98 17.656 262.98 19.512C262.98 21.368 264.708 22.136 268.1 23.096C271.684 24.12 275.076 24.824 277.508 25.784C280.836 27.128 282.692 29.304 282.692 33.4C282.692 39.928 277.892 43.832 268.932 43.832C259.268 43.832 253.892 39.288 253.764 32.888H262.34C262.34 35.832 264.836 37.56 268.868 37.56C271.812 37.56 274.436 36.664 274.436 34.296C274.436 32.056 272.068 31.352 269.38 30.712C264.068 29.432 261.124 28.536 258.884 27.128C255.94 25.272 254.916 22.84 254.916 20.024C254.916 14.712 258.564 10.68 268.164 10.68C277.252 10.68 281.348 14.264 281.796 21.048ZM293.743 43H284.847V34.36H293.743V43Z" fill="#417EDB"/>
</svg>
